<svg xmlns="http://www.w3.org/2000/svg" xmlns:xlink="http://www.w3.org/1999/xlink" viewBox="0 0 192 192"><defs><linearGradient id="a" x1="9.9" y1="145.71" x2="182.1" y2="46.29" gradientUnits="userSpaceOnUse"><stop offset="0" stop-color="#60c600"/><stop offset="0.23" stop-color="#70de39"/><stop offset="0.47" stop-color="#80f670"/><stop offset="0.59" stop-color="#86ff86"/><stop offset="0.64" stop-color="#7aff8e"/><stop offset="0.79" stop-color="#56ffa4"/><stop offset="0.92" stop-color="#40ffb1"/><stop offset="1" stop-color="#38ffb6"/></linearGradient><symbol id="b" viewBox="0 0 192 192"><rect width="192" height="192" fill="none"/></symbol><symbol id="c" viewBox="0 0 192 192"><path d="M0,0V192H192V0ZM188,188H4V4H188Z" fill="#db4437" fill-opacity="0.4"/></symbol></defs><title>ic_material_product_icon_192px</title><rect x="20" y="20" width="152" height="152" rx="12" ry="12" fill="url(#a)"/><circle cx="99.35" cy="92.64" r="27.42" fill="#f5f5f5"/><circle cx="96" cy="96" r="30.84" fill="none" stroke="#fff" stroke-miterlimit="10" stroke-width="8"/><path d="M96,130.85c17.1,0,32.2-12.27,34.63-30.85-4.82,4.07-10.57,6.84-17.4,6.84A27.53,27.53,0,0,1,85.6,79.42c0-6.87,3.2-13.33,7.41-18.14a34.85,34.85,0,0,0,3,69.57Z" opacity="0.17"/><path d="M155.31,55.66h-9.5v9.5h-3.17v-9.5h-9.5V52.5h9.5V43h3.17v9.5h9.5Z" stroke="#fff" stroke-miterlimit="10" stroke-width="4"/><use width="192" height="192" xlink:href="#b"/><use width="192" height="192" xlink:href="#c"/></svg>